<?xml version="1.0" encoding="UTF-8"?>
<!-- Generated by Pixelmator Pro 2.4.7 -->
<svg width="730" height="200" viewBox="0 0 730 200" xmlns="http://www.w3.org/2000/svg" xmlns:xlink="http://www.w3.org/1999/xlink">
    <path id="Path" fill="#23a8e0" fill-rule="evenodd" stroke="none" d="M 214.867188 199.998047 C 198.061965 199.872403 182.556304 193.788359 172.738281 177.876953 C 168.884136 171.631615 166.803078 164.654202 165.328125 157.513672 C 152.51716 172.211823 139.612375 189.031393 120.792969 196.380859 C 99.594348 204.660204 82.718832 186.994325 82.296875 166.564453 L 81.542969 166.564453 C 71.42599 190.714687 37.721209 210.739925 15.902344 188.423828 C 11.916014 184.346771 8.956819 179.326634 6.71875 174.105469 C -6.204077 143.959547 0.354229 103.008946 19.214844 76.816406 C 37.948725 50.800342 74.726249 47.443229 97.394531 70.029297 C 99.375201 59.374293 100.580466 47.673405 99.53125 36.845703 C 99.097228 32.365895 96.80361 27.647212 96.716797 23.271484 C 96.61339 18.089528 105.725997 12.959897 109.470703 10.363281 C 122.957988 1.011469 148.100082 -7.676327 158.291016 11.205078 C 164.130381 22.023732 160.713265 34.035076 157.666016 45.142578 C 151.204668 68.693244 141.198482 91.178353 134.068359 114.525391 C 131.426459 123.177298 128.525264 131.889848 127.550781 140.921875 C 127.154489 144.593216 126.542753 149.239981 129.962891 151.779297 C 134.308442 155.004155 139.945345 151.182454 143.439453 148.539063 C 152.499664 141.685859 159.885998 132.208754 166.160156 122.822266 C 172.544502 113.271379 175.009458 101.10462 181.228516 91.146484 C 196.217907 67.144082 225.312624 48.621284 254.398438 55.623047 C 285.586455 63.130882 290.057556 102.841811 271.513672 125.083984 C 254.83497 145.089263 232.948992 145.70992 209.863281 139.414063 C 210.807579 161.054399 231.025089 172.108651 250.625 165.015625 C 276.856831 155.522802 297.319935 131.974212 311.001953 108.492188 C 315.974755 99.95868 311.120561 92.697547 313.326172 84.359375 C 314.428229 80.19405 319.402678 76.007764 322.335938 73.046875 C 330.06234 65.246422 339.327284 57.790754 350.261719 55.269531 C 365.948581 51.65253 369.106094 66.334775 364.603516 78.326172 C 371.56302 73.4278 376.872427 66.611598 384.230469 62.082031 C 401.763684 51.287517 437.904651 51.293943 439.332031 79.080078 C 446.397218 72.020996 453.755977 65.356212 462.732422 60.794922 C 484.33113 49.819408 516.161826 54.328176 519.880859 82.849609 C 521.680327 96.651788 514.307494 109.38915 510.035156 122.068359 C 507.452114 129.736824 504.440956 137.438679 503.089844 145.447266 C 502.46861 149.127651 503.610263 153.059971 508.021484 153.130859 C 518.545286 153.301311 529.36007 137.71574 534.914063 130.363281 C 542.207962 120.706064 541.190244 109.268116 544.583984 97.933594 C 552.556449 71.311176 576.94223 38.407515 608.414063 52.261719 C 615.778152 55.503186 622.269918 60.741018 628.039063 66.257813 C 637.183804 47.03162 659.25792 52.68631 669.517578 67.767578 C 681.650681 85.602338 680.431849 109.287343 677.859375 129.609375 C 689.913979 126.123577 698.644955 118.473714 706.066406 108.492188 C 710.775003 102.159369 714.689202 91.635157 724.658203 93.822266 C 732.402748 95.520659 730.100513 102.490736 727.783203 107.738281 C 722.863975 118.854084 716.272403 129.054345 707.226563 137.259766 C 700.923021 142.97793 693.533511 147.166331 685.40625 149.710938 C 681.577747 150.909316 675.232981 150.347621 672.113281 152.794922 C 667.936027 156.071057 665.566274 163.097245 662.257813 167.318359 C 655.86441 175.474777 648.101484 182.349299 639.361328 187.912109 C 609.111499 207.163214 568.075377 202.810114 550.486328 168.826172 C 547.796871 163.62915 545.115124 158.062647 544.253906 152.234375 C 533.607012 160.838771 526.532726 173.665063 515.570313 182.398438 C 509.340718 187.361667 502.605651 191.879229 495.189453 194.880859 C 490.612134 196.733871 485.777453 197.834765 480.847656 198.171875 C 477.293927 198.415473 473.740203 198.148625 470.279297 197.304688 C 459.710931 194.726177 455.117161 185.575641 453.488281 175.615234 C 450.533091 157.542897 460.241895 138.871405 465.490234 122.068359 C 468.089098 113.747529 471.478297 97.064269 458.203125 96.460938 C 451.895765 96.174347 440.894973 99.823614 436.957031 105.007813 C 433.515765 109.53815 433.162584 118.131773 431.871094 123.576172 C 428.125609 139.360317 424.495133 155.143531 421.509766 171.089844 C 419.402293 182.345917 421.292842 194.374256 407.628906 197.269531 C 403.679663 198.105919 399.583561 198.515552 395.552734 198.111328 C 363.716329 194.918898 378.002871 155.572659 383.6875 137.150391 C 385.003884 132.884766 386.517155 128.651508 387.642578 124.330078 C 389.664772 116.571869 394.092322 102.265895 384.230469 97.931641 C 372.086034 92.594358 359.592607 103.98804 356.958984 114.525391 C 352.602132 131.962698 348.633076 149.653285 345.326172 167.318359 C 344.076924 173.989808 344.826807 185.490253 341.195313 191.203125 C 334.074994 202.404903 310.877144 199.82036 304.298828 189.941406 C 297.873721 180.293989 300.413946 168.991206 300.443359 158.267578 C 294.362452 164.343221 288.402721 170.445623 281.572266 175.699219 C 265.029548 188.421528 238.648162 200.175845 214.867188 199.998047 Z M 605.976563 161.328125 C 619.530052 161.419262 633.459855 143.976894 631.650391 131.117188 C 630.888001 125.69692 627.117125 120.627169 625.6875 115.279297 C 622.694583 104.085056 622.606996 93.527523 623.509766 82.095703 C 599.087305 84.037718 588.033203 111.13896 588.033203 132.626953 C 588.033203 141.385207 588.959358 151.910795 596.404297 157.847656 C 599.419335 160.251891 602.686881 161.306004 605.976563 161.328125 Z M 57.296875 158.060547 C 64.359555 158.127444 72.697292 151.669444 77.3125 143.939453 C 80.752262 138.178297 83.764482 131.627969 85.316406 125.083984 C 80.347371 120.856831 84.875849 117.103228 86.919922 112.263672 C 89.754308 105.554526 91.740533 94.659831 85.175781 89.373047 C 76.702065 82.548522 64.928552 89.759597 59.037109 96.425781 C 48.381942 108.482791 42.56401 129.604294 45.814453 145.447266 C 47.669387 154.488326 52.143028 158.01173 57.296875 158.060547 Z M 219.033203 120.109375 C 221.336467 120.101927 223.744157 119.753467 224.960938 119.578125 C 237.345431 117.794504 246.165774 107.430988 248.9375 95.671875 C 250.300719 89.888846 251.133856 76.841082 241.566406 78.736328 C 229.035474 81.218328 221.000728 95.445758 216.658203 106.230469 C 215.568986 108.934949 211.823626 115.782626 213.726563 118.595703 C 214.530082 119.783526 216.729939 120.116823 219.033203 120.109375 Z"/>
</svg>
